<svg width="163" height="22" viewBox="0 0 163 22" fill="none" xmlns="http://www.w3.org/2000/svg">
<path d="M1.2 5.176C1.2 7.24 2.352 8.92 5.352 9.616L7.896 10.216C8.808 10.432 9.456 10.816 9.456 11.704C9.456 12.736 8.592 13.36 7.104 13.36C5.52 13.36 4.464 12.64 4.368 11.392H0.768C0.984 14.44 3.408 16.312 7.056 16.312C10.728 16.312 13.152 14.392 13.152 11.32C13.152 9.136 11.856 7.456 9.072 6.808L6.648 6.256C5.592 6.016 4.8 5.68 4.8 4.744C4.8 3.832 5.568 3.232 6.768 3.232C8.088 3.232 9.072 3.928 9.12 5.008H12.744C12.696 2.176 10.368 0.279999 6.96 0.279999C3.504 0.279999 1.2 2.176 1.2 5.176ZM23.8584 5.176L23.6424 6.232C22.8504 5.296 21.6264 4.792 20.0904 4.792C16.8744 4.792 14.6664 7.144 14.6664 10.672C14.6664 14.056 16.7304 16.312 19.7784 16.312C21.3384 16.312 22.7064 15.712 23.4504 14.752V16H26.6664V5.176H23.8584ZM20.6664 13.288C19.1064 13.288 18.0984 12.16 18.0984 10.552C18.0984 8.92 19.1064 7.816 20.6664 7.816C22.2264 7.816 23.3064 8.896 23.3064 10.528C23.3064 12.184 22.2264 13.288 20.6664 13.288ZM42.5055 4.792C40.8735 4.792 39.6495 5.512 38.9775 6.712C38.3775 5.536 37.0815 4.792 35.5215 4.792C34.3215 4.792 33.1455 5.32 32.4735 6.184L32.3295 5.176H29.2335V16H32.5935V9.88C32.5935 8.608 33.2895 7.72 34.4415 7.72C35.5215 7.72 36.2175 8.44 36.2175 9.712V16H39.5055V9.88C39.5055 8.584 40.2015 7.696 41.4255 7.696C42.3855 7.696 43.1295 8.392 43.1295 9.712V16H46.4655V8.896C46.4655 6.4 44.8335 4.792 42.5055 4.792ZM55.5924 4.792C54.0084 4.792 52.6644 5.416 51.9204 6.424L51.7284 5.176H48.9444V21.112H52.3044V15.16C53.0244 15.904 54.1764 16.312 55.5924 16.312C58.7364 16.312 60.9444 14.008 60.9444 10.552C60.9444 7.096 58.7364 4.792 55.5924 4.792ZM54.9444 13.312C53.3844 13.312 52.3284 12.232 52.3284 10.576C52.3284 8.92 53.3844 7.84 54.9444 7.84C56.5044 7.84 57.5124 8.944 57.5124 10.576C57.5124 12.184 56.5044 13.312 54.9444 13.312ZM71.6709 5.176L71.4549 6.232C70.6629 5.296 69.4389 4.792 67.9029 4.792C64.6869 4.792 62.4789 7.144 62.4789 10.672C62.4789 14.056 64.5429 16.312 67.5909 16.312C69.1509 16.312 70.5189 15.712 71.2629 14.752V16H74.4789V5.176H71.6709ZM68.4789 13.288C66.9189 13.288 65.9109 12.16 65.9109 10.552C65.9109 8.92 66.9189 7.816 68.4789 7.816C70.0389 7.816 71.1189 8.896 71.1189 10.528C71.1189 12.184 70.0389 13.288 68.4789 13.288Z" fill="#FBFBF4"/>
<path d="M93.3968 12.52H90.1328C89.8448 13.168 89.0288 13.6 87.9728 13.6C86.5568 13.6 85.5968 12.76 85.5488 11.488H93.2288C93.3008 11.176 93.3728 10.672 93.3728 10.024C93.3728 6.976 91.1888 4.792 87.9008 4.792C84.6128 4.792 82.2368 7.024 82.2368 10.552C82.2368 13.984 84.5408 16.312 87.9728 16.312C90.7568 16.312 92.9408 14.8 93.3968 12.52ZM85.5968 9.304C85.6688 8.2 86.5568 7.528 87.7808 7.528C89.0048 7.528 89.8928 8.2 89.9408 9.304H85.5968ZM93.7093 5.176L97.9333 16H101.221L105.757 5.176H102.301L101.077 8.392C100.477 9.976 99.6613 12.424 99.6613 12.424C99.6613 12.424 99.0133 10.144 98.4133 8.392L97.3093 5.176H93.7093ZM117.397 12.52H114.133C113.845 13.168 113.029 13.6 111.973 13.6C110.557 13.6 109.597 12.76 109.549 11.488H117.229C117.301 11.176 117.373 10.672 117.373 10.024C117.373 6.976 115.189 4.792 111.901 4.792C108.613 4.792 106.237 7.024 106.237 10.552C106.237 13.984 108.541 16.312 111.973 16.312C114.757 16.312 116.941 14.8 117.397 12.52ZM109.597 9.304C109.669 8.2 110.557 7.528 111.781 7.528C113.005 7.528 113.893 8.2 113.941 9.304H109.597ZM125.664 4.792C124.248 4.792 122.976 5.416 122.304 6.352L122.088 5.176H119.304V16H122.64V9.976C122.64 8.68 123.264 7.84 124.584 7.84C125.688 7.84 126.408 8.44 126.408 10.072V16H129.768V9.28C129.768 6.592 128.28 4.792 125.664 4.792ZM138.649 5.176H136.609V2.368H133.249V5.176H131.257V7.936H133.249V16H136.609V7.936H138.649V5.176ZM139.588 10.576C139.588 13.936 142.012 16.312 145.612 16.312C149.188 16.312 151.612 13.936 151.612 10.576C151.612 7.168 149.188 4.792 145.612 4.792C142.012 4.792 139.588 7.168 139.588 10.576ZM143.02 10.552C143.02 8.92 144.052 7.792 145.612 7.792C147.172 7.792 148.204 8.92 148.204 10.552C148.204 12.16 147.172 13.336 145.612 13.336C144.052 13.336 143.02 12.16 143.02 10.552ZM157.983 16.312C160.839 16.312 162.687 14.896 162.687 12.64C162.687 11.176 161.895 9.904 159.855 9.424L157.839 8.944C157.239 8.8 156.783 8.704 156.783 8.128C156.783 7.6 157.215 7.312 157.863 7.312C158.631 7.312 159.159 7.72 159.183 8.368H162.447C162.399 6.232 160.599 4.792 157.935 4.792C155.271 4.792 153.423 6.256 153.423 8.44C153.423 10 154.311 11.176 156.519 11.704L158.247 12.136C158.727 12.232 159.231 12.4 159.231 12.976C159.231 13.576 158.703 13.84 157.983 13.84C157.119 13.84 156.519 13.432 156.471 12.688H153.159C153.351 14.92 155.223 16.312 157.983 16.312Z" fill="#F9CA24"/>
</svg>
