<svg width="164" height="30" viewBox="0 0 164 30" fill="none" xmlns="http://www.w3.org/2000/svg">
<path d="M1.2 13.176C1.2 15.24 2.352 16.92 5.352 17.616L7.896 18.216C8.808 18.432 9.456 18.816 9.456 19.704C9.456 20.736 8.592 21.36 7.104 21.36C5.52 21.36 4.464 20.64 4.368 19.392H0.768C0.984 22.44 3.408 24.312 7.056 24.312C10.728 24.312 13.152 22.392 13.152 19.32C13.152 17.136 11.856 15.456 9.072 14.808L6.648 14.256C5.592 14.016 4.8 13.68 4.8 12.744C4.8 11.832 5.568 11.232 6.768 11.232C8.088 11.232 9.072 11.928 9.12 13.008H12.744C12.696 10.176 10.368 8.28 6.96 8.28C3.504 8.28 1.2 10.176 1.2 13.176ZM23.8584 13.176L23.6424 14.232C22.8504 13.296 21.6264 12.792 20.0904 12.792C16.8744 12.792 14.6664 15.144 14.6664 18.672C14.6664 22.056 16.7304 24.312 19.7784 24.312C21.3384 24.312 22.7064 23.712 23.4504 22.752V24H26.6664V13.176H23.8584ZM20.6664 21.288C19.1064 21.288 18.0984 20.16 18.0984 18.552C18.0984 16.92 19.1064 15.816 20.6664 15.816C22.2264 15.816 23.3064 16.896 23.3064 18.528C23.3064 20.184 22.2264 21.288 20.6664 21.288ZM42.5055 12.792C40.8735 12.792 39.6495 13.512 38.9775 14.712C38.3775 13.536 37.0815 12.792 35.5215 12.792C34.3215 12.792 33.1455 13.32 32.4735 14.184L32.3295 13.176H29.2335V24H32.5935V17.88C32.5935 16.608 33.2895 15.72 34.4415 15.72C35.5215 15.72 36.2175 16.44 36.2175 17.712V24H39.5055V17.88C39.5055 16.584 40.2015 15.696 41.4255 15.696C42.3855 15.696 43.1295 16.392 43.1295 17.712V24H46.4655V16.896C46.4655 14.4 44.8335 12.792 42.5055 12.792ZM55.5924 12.792C54.0084 12.792 52.6644 13.416 51.9204 14.424L51.7284 13.176H48.9444V29.112H52.3044V23.16C53.0244 23.904 54.1764 24.312 55.5924 24.312C58.7364 24.312 60.9444 22.008 60.9444 18.552C60.9444 15.096 58.7364 12.792 55.5924 12.792ZM54.9444 21.312C53.3844 21.312 52.3284 20.232 52.3284 18.576C52.3284 16.92 53.3844 15.84 54.9444 15.84C56.5044 15.84 57.5124 16.944 57.5124 18.576C57.5124 20.184 56.5044 21.312 54.9444 21.312ZM71.6709 13.176L71.4549 14.232C70.6629 13.296 69.4389 12.792 67.9029 12.792C64.6869 12.792 62.4789 15.144 62.4789 18.672C62.4789 22.056 64.5429 24.312 67.5909 24.312C69.1509 24.312 70.5189 23.712 71.2629 22.752V24H74.4789V13.176H71.6709ZM68.4789 21.288C66.9189 21.288 65.9109 20.16 65.9109 18.552C65.9109 16.92 66.9189 15.816 68.4789 15.816C70.0389 15.816 71.1189 16.896 71.1189 18.528C71.1189 20.184 70.0389 21.288 68.4789 21.288Z" fill="#6A0EEA"/>
<path d="M93.3968 20.52H90.1328C89.8448 21.168 89.0288 21.6 87.9728 21.6C86.5568 21.6 85.5968 20.76 85.5488 19.488H93.2288C93.3008 19.176 93.3728 18.672 93.3728 18.024C93.3728 14.976 91.1888 12.792 87.9008 12.792C84.6128 12.792 82.2368 15.024 82.2368 18.552C82.2368 21.984 84.5408 24.312 87.9728 24.312C90.7568 24.312 92.9408 22.8 93.3968 20.52ZM85.5968 17.304C85.6688 16.2 86.5568 15.528 87.7808 15.528C89.0048 15.528 89.8928 16.2 89.9408 17.304H85.5968ZM93.7093 13.176L97.9333 24H101.221L105.757 13.176H102.301L101.077 16.392C100.477 17.976 99.6613 20.424 99.6613 20.424C99.6613 20.424 99.0133 18.144 98.4133 16.392L97.3093 13.176H93.7093ZM117.397 20.52H114.133C113.845 21.168 113.029 21.6 111.973 21.6C110.557 21.6 109.597 20.76 109.549 19.488H117.229C117.301 19.176 117.373 18.672 117.373 18.024C117.373 14.976 115.189 12.792 111.901 12.792C108.613 12.792 106.237 15.024 106.237 18.552C106.237 21.984 108.541 24.312 111.973 24.312C114.757 24.312 116.941 22.8 117.397 20.52ZM109.597 17.304C109.669 16.2 110.557 15.528 111.781 15.528C113.005 15.528 113.893 16.2 113.941 17.304H109.597ZM125.664 12.792C124.248 12.792 122.976 13.416 122.304 14.352L122.088 13.176H119.304V24H122.64V17.976C122.64 16.68 123.264 15.84 124.584 15.84C125.688 15.84 126.408 16.44 126.408 18.072V24H129.768V17.28C129.768 14.592 128.28 12.792 125.664 12.792ZM138.649 13.176H136.609V10.368H133.249V13.176H131.257V15.936H133.249V24H136.609V15.936H138.649V13.176ZM139.588 18.576C139.588 21.936 142.012 24.312 145.612 24.312C149.188 24.312 151.612 21.936 151.612 18.576C151.612 15.168 149.188 12.792 145.612 12.792C142.012 12.792 139.588 15.168 139.588 18.576ZM143.02 18.552C143.02 16.92 144.052 15.792 145.612 15.792C147.172 15.792 148.204 16.92 148.204 18.552C148.204 20.16 147.172 21.336 145.612 21.336C144.052 21.336 143.02 20.16 143.02 18.552ZM157.983 24.312C160.839 24.312 162.687 22.896 162.687 20.64C162.687 19.176 161.895 17.904 159.855 17.424L157.839 16.944C157.239 16.8 156.783 16.704 156.783 16.128C156.783 15.6 157.215 15.312 157.863 15.312C158.631 15.312 159.159 15.72 159.183 16.368H162.447C162.399 14.232 160.599 12.792 157.935 12.792C155.271 12.792 153.423 14.256 153.423 16.44C153.423 18 154.311 19.176 156.519 19.704L158.247 20.136C158.727 20.232 159.231 20.4 159.231 20.976C159.231 21.576 158.703 21.84 157.983 21.84C157.119 21.84 156.519 21.432 156.471 20.688H153.159C153.351 22.92 155.223 24.312 157.983 24.312Z" fill="#F9CA24"/>
</svg>
