<svg width="828" height="870" viewBox="0 0 828 870" fill="none" xmlns="http://www.w3.org/2000/svg">
<path opacity="0.2" d="M522.413 759.859C320.614 769.826 104.055 813.85 21.0005 834.615V870H922C872.888 829.133 724.212 749.891 522.413 759.859Z" fill="white"/>
<path d="M746.844 828.688C746.569 828.688 746.324 828.512 746.236 828.251C745.005 824.604 744.083 823.683 740.436 822.452C740.176 822.364 740 822.119 740 821.844C740 821.569 740.176 821.324 740.436 821.236C744.083 820.005 745.005 819.083 746.236 815.436C746.324 815.176 746.569 815 746.844 815C747.119 815 747.364 815.176 747.452 815.436C748.683 819.083 749.604 820.005 753.251 821.236C753.512 821.324 753.688 821.569 753.688 821.844C753.688 822.119 753.512 822.364 753.251 822.452C749.604 823.683 748.683 824.604 747.452 828.251C747.364 828.512 747.119 828.688 746.844 828.688Z" fill="white"/>
<path d="M44.9778 848.585L44.9765 848.582C43.0807 844.98 42.5592 844.498 38.2974 843.991L38.2966 843.991C34.6301 843.555 33.3038 845.584 33.0038 846.161C27.9468 856.845 17.4397 878.404 5.94025 898.205C20.2642 880.438 36.5703 862.967 44.7635 854.389C45.6953 853.411 46.8522 852.146 44.9778 848.585Z" fill="#F2D422"/>
<path d="M36.3201 848.441C36.62 847.863 37.9465 845.835 41.6129 846.271L41.6138 846.271C42.5173 846.378 43.2515 846.485 43.8676 846.62C42.6686 844.766 41.6189 844.385 38.2976 843.991L38.2967 843.99C34.6303 843.555 33.304 845.583 33.0039 846.16C27.9469 856.845 17.4398 878.403 5.94039 898.205C10.3429 892.744 14.9325 887.312 19.4164 882.157C26.6814 868.496 32.8122 855.852 36.3201 848.441Z" fill="#E8C018"/>
<path d="M463.192 71.2497C462.825 71.2497 462.499 71.0156 462.382 70.668C460.741 65.8049 459.512 64.5765 454.649 62.9354C454.301 62.8179 454.067 62.4917 454.067 62.1247C454.067 61.7577 454.301 61.4315 454.649 61.3143C459.512 59.6732 460.74 58.4445 462.382 53.5817C462.499 53.2341 462.825 53 463.192 53C463.559 53 463.885 53.2341 464.003 53.5817C465.644 58.4445 466.872 59.6732 471.735 61.3143C472.083 61.4318 472.317 61.7577 472.317 62.1247C472.317 62.4917 472.083 62.8179 471.735 62.9354C466.872 64.5765 465.644 65.8049 464.003 70.668C463.886 71.0156 463.559 71.2497 463.192 71.2497Z" fill="#FFD00D"/>
<path d="M620.756 16.2298C620.487 16.1151 620.321 15.8414 620.344 15.5501C620.661 11.4724 620.145 10.1878 617.093 7.46464C616.876 7.26982 616.806 6.9576 616.921 6.68849C617.035 6.41963 617.309 6.2537 617.6 6.27618C621.678 6.5937 622.962 6.07706 625.686 3.02581C625.88 2.80756 626.193 2.73805 626.462 2.85283C626.731 2.96762 626.897 3.24097 626.874 3.53283C626.557 7.6102 627.074 8.89483 630.125 11.6183C630.342 11.8128 630.412 12.1253 630.298 12.3942C630.183 12.6633 629.909 12.8289 629.618 12.8067C625.54 12.4895 624.256 13.0056 621.532 16.0571C621.337 16.2749 621.025 16.3445 620.756 16.2298Z" fill="white"/>
<path d="M76.5496 75.0862L72.2135 70.42L73.5993 64.2029C73.6766 63.8559 73.5502 63.4951 73.2735 63.2723C72.9968 63.0496 72.6175 63.003 72.2949 63.1528L66.5172 65.8346L61.0324 62.5951C60.3678 62.2026 59.538 62.7442 59.6308 63.5112L60.3958 69.835L55.6199 74.0504C55.0413 74.5613 55.2997 75.5184 56.058 75.6664L62.3087 76.8931C65.0685 83.2596 64.8663 82.895 65.113 83.0937C65.2639 83.2151 65.4516 83.289 65.6526 83.2989C66.0075 83.3163 66.3417 83.1311 66.5146 82.8207L69.6126 77.2547L75.9537 76.6512C76.7221 76.5785 77.0756 75.6526 76.5496 75.0862Z" fill="#FFA92C"/>
<path d="M63.6012 74.5298L62.8362 68.206C62.7435 67.4399 63.5725 66.897 64.2378 67.2899L69.7226 70.5294L72.4738 69.2524L73.5993 64.2029C73.6766 63.8559 73.5502 63.4951 73.2735 63.2723C72.9968 63.0496 72.6175 63.003 72.2949 63.1528L66.5172 65.8346L61.0324 62.5951C60.3678 62.2026 59.538 62.7442 59.6308 63.5112L60.3958 69.835L55.6199 74.0504C55.0413 74.5613 55.2997 75.5184 56.058 75.6665L61.1752 76.6707L63.6012 74.5298Z" fill="#FF8828"/>
<path d="M249 107C250.297 105.382 254.542 103.141 258.669 105.133C262.874 107.163 264.643 105.336 266.097 101.273C268.101 95.6713 274.704 95.9203 276 100.029" stroke="url(#paint0_linear)" stroke-width="3" stroke-linecap="round" stroke-linejoin="round"/>
<path d="M704.844 120.688C704.569 120.688 704.324 120.512 704.236 120.251C703.005 116.604 702.083 115.683 698.436 114.452C698.176 114.364 698 114.119 698 113.844C698 113.569 698.176 113.324 698.436 113.236C702.083 112.005 703.005 111.083 704.236 107.436C704.324 107.176 704.569 107 704.844 107C705.119 107 705.364 107.176 705.452 107.436C706.683 111.083 707.604 112.005 711.251 113.236C711.512 113.324 711.688 113.569 711.688 113.844C711.688 114.119 711.512 114.364 711.251 114.452C707.604 115.683 706.683 116.604 705.452 120.251C705.364 120.512 705.119 120.688 704.844 120.688Z" fill="white"/>
<defs>
<linearGradient id="paint0_linear" x1="242.971" y1="100.617" x2="246.778" y2="114.828" gradientUnits="userSpaceOnUse">
<stop stop-color="#FC58B3"/>
<stop offset="1" stop-color="#FEAE68"/>
</linearGradient>
</defs>
</svg>
